<?xml version="1.0" encoding="utf-8"?>
<!-- Generator: Adobe Illustrator 23.0.2, SVG Export Plug-In . SVG Version: 6.00 Build 0)  -->
<svg version="1.1" id="Layer_1" xmlns="http://www.w3.org/2000/svg" xmlns:xlink="http://www.w3.org/1999/xlink" x="0px" y="0px"
	 viewBox="0 0 164 166.5" style="enable-background:new 0 0 164 166.5;" xml:space="preserve">
<style type="text/css">
	.st0{fill:#FFFFFF;stroke:#000000;stroke-width:0.69;stroke-miterlimit:10;}
	.st1{opacity:0.6;}
	.st2{fill:#37CCC5;}
	.st3{fill:#DBB71F;}
	.st4{fill:#F20C9B;}
	.st5{fill:#FFFFFF;}
</style>
<title>ikon3</title>
<circle class="st0" cx="82.5" cy="85.5" r="71"/>
<g class="st1">
	<circle class="st2" cx="82" cy="85.2" r="63"/>
</g>
<path class="st3" d="M20.4,57.7c-3.8,0-6.2-0.9-7-2.5c-2.9-6,15-21.3,39.1-33.4C69.3,13.3,85.7,8,95.2,8c3.8,0,6.2,0.9,7,2.5
	c2.9,6-15,21.3-39.1,33.4C46.3,52.4,29.9,57.7,20.4,57.7z"/>
<path d="M95.3,8.5L95.3,8.5c3.6,0,5.8,0.8,6.5,2.2c1.2,2.6-2.1,7.6-9,13.6c-7.4,6.4-18,13.2-29.9,19.2
	c-16.8,8.4-33.1,13.7-42.6,13.7c-3.6,0-5.8-0.8-6.5-2.2c-1.2-2.6,2.1-7.6,8.9-13.6c7.4-6.4,18-13.2,29.9-19.2
	C69.4,13.8,85.8,8.5,95.3,8.5 M95.2,7.5c-9.2,0-25.6,5-43,13.8C27.4,33.8,9.8,49,12.9,55.4c0.9,1.9,3.5,2.8,7.4,2.8
	c9.2,0,25.6-5,43-13.8c24.8-12.5,42.4-27.7,39.3-34.1C101.7,8.4,99.1,7.5,95.2,7.5z"/>
<path class="st3" d="M54,54.3c-5.1,0-11.3-9-14-20.5C37,21.3,38.9,10,44.2,8.7c0.3-0.1,0.7-0.1,1-0.1c0.7,0,1.3,0.1,1.9,0.4l0.5,0.2
	l0.2-0.5c0.3-1.1,1-2.1,2-2.8c0.7-0.4,1.5-0.6,2.3-0.6c4.9,0,12.1,6.1,17.4,14.9c6.5,10.6,8.1,21.5,3.7,24.2
	c-0.7,0.4-1.5,0.6-2.3,0.6l0,0c-2.6,0-5.9-1.8-9.4-4.9l-0.8-0.8v1.1c0,7.6-2.2,12.9-5.6,13.7C54.7,54.2,54.3,54.3,54,54.3z"/>
<path d="M52,5.8c4.7,0,11.8,6.2,17,14.7c6.9,11.3,7.5,21.3,3.9,23.5c-0.6,0.4-1.3,0.5-2,0.5c-2.4,0-5.7-1.8-9.1-4.8l-1.7-1.5v2.3
	c0,7.3-2.1,12.5-5.2,13.2c-0.3,0.1-0.6,0.1-0.9,0.1c-4.3,0-10.5-7.5-13.5-20.1c-3.2-13.3-0.6-23.4,3.8-24.5c0.3-0.1,0.6-0.1,0.9-0.1
	c0.6,0,1.2,0.1,1.7,0.4l1,0.4l0.3-1c0.3-1,0.9-1.9,1.8-2.5C50.6,5.9,51.3,5.8,52,5.8 M52,4.8c-0.9,0-1.8,0.2-2.6,0.7
	c-1.1,0.7-1.8,1.8-2.2,3C46.6,8.2,45.9,8,45.2,8c-0.4,0-0.8,0-1.1,0.1c-5.6,1.4-7.6,12.9-4.6,25.7c2.9,12,9.1,20.9,14.5,20.9
	c0.4,0,0.8,0,1.1-0.1c3.8-0.9,6-6.6,6-14.2c3.5,3.2,7,5.1,9.8,5.1c0.9,0,1.8-0.2,2.6-0.7c4.7-2.9,3.1-14-3.5-24.9
	C64.3,10.8,57,4.8,52,4.8z"/>
<path class="st3" d="M20.7,68.9c-0.8,0.1-1.6-0.4-2-1.1l-5.6-11.3c-0.3-0.5-0.3-1.2,0-1.7c0.4-0.9,1.2-1.5,2.1-1.8
	c15.1-4.5,29.8-9.1,43.8-16.4c14.2-7.4,27.6-16.2,39.8-26.5c0.6-0.5,1.4-0.8,2.2-0.8c0.8-0.1,1.6,0.4,2,1.1l5.7,11.4
	c0.4,1,0.1,2.1-0.8,2.8C97.1,34.1,79.7,43.1,67,49.7c-14.7,7.6-30.2,13.4-45.2,19C21.5,68.8,21.1,68.9,20.7,68.9z"/>
<path d="M101.1,9.8L101.1,9.8c0.6,0,1.2,0.3,1.5,0.8l3,6l2.6,5.3c0.3,0.8,0,1.7-0.7,2.2c-10.8,9.5-28.1,18.5-40.8,25.1
	c-14.6,7.6-30.1,13.4-45.1,19c-0.3,0.1-0.7,0.2-1,0.2c-0.6,0.1-1.2-0.3-1.5-0.8l-5.6-11.2c-0.2-0.4-0.2-0.9,0-1.3
	c0.4-0.7,1-1.3,1.8-1.5c15.1-4.5,29.8-9.1,43.9-16.4c14.2-7.4,27.6-16.3,39.9-26.6C99.7,10.1,100.3,9.8,101.1,9.8 M101,8.8
	c-0.9,0-1.8,0.4-2.5,1C86.3,20.1,73,28.9,58.8,36.2C44.7,43.5,30.1,48.1,15,52.6c-2,0.6-3.2,2.7-2.4,4.3l5.6,11.2
	c0.5,0.9,1.4,1.4,2.4,1.4c0.4,0,0.9-0.1,1.3-0.2c15.5-5.8,30.8-11.6,45.2-19c14.2-7.3,30.5-15.9,41-25.2c1-0.8,1.4-2.2,0.9-3.4
	c-1.9-3.8-3.8-7.6-5.6-11.4C102.9,9.4,102,8.8,101,8.8L101,8.8z"/>
<polygon class="st4" points="24.6,55 31.5,61 23.2,64.1 "/>
<path d="M25,56l2.8,2.4l2.8,2.5l-3.4,1.2l-3.4,1.2l0.6-3.7L25,56 M24.3,54.1l-0.9,5.4l-0.9,5.4l5-1.8l5-1.8l-4.1-3.6L24.3,54.1
	L24.3,54.1z"/>
<polygon class="st4" points="37.8,50.3 44.9,56.1 36.6,59.4 "/>
<path d="M38.2,51.2l2.8,2.3l2.9,2.4l-3.3,1.3l-3.3,1.3l0.5-3.7L38.2,51.2 M37.4,49.3l-0.7,5.4l-0.7,5.4l4.9-2l4.9-2l-4.2-3.4
	L37.4,49.3L37.4,49.3z"/>
<polygon class="st4" points="50.6,44.8 57.8,50.6 49.6,53.9 "/>
<path d="M51,45.8l2.9,2.3l2.9,2.4l-3.3,1.4l-3.3,1.4l0.4-3.7L51,45.8 M50.2,43.9l-0.6,5.4L49,54.7l4.9-2l4.9-2l-4.2-3.4L50.2,43.9
	L50.2,43.9z"/>
<polygon class="st4" points="62.3,38.6 69.8,43.9 61.9,47.7 "/>
<path d="M62.8,39.5l3,2.1l3.1,2.2l-3.2,1.6l-3.2,1.6l0.2-3.8L62.8,39.5 M61.9,37.7l-0.3,5.4l-0.3,5.4l4.8-2.3l4.8-2.3l-4.5-3.1
	L61.9,37.7z"/>
<polygon class="st4" points="73.5,32.6 81,37.9 73.1,41.8 "/>
<path d="M74,33.6l3,2.1l3.1,2.2l-3.2,1.6L73.6,41l0.2-3.8L74,33.6 M73.1,31.8l-0.3,5.4l-0.3,5.4l4.8-2.3L82,38l-4.5-3.1L73.1,31.8
	L73.1,31.8z"/>
<polygon class="st4" points="84.7,26.2 92.5,31.1 84.7,35.4 "/>
<path d="M85.2,27.1l3.1,1.9l3.2,2l-3.1,1.7l-3.1,1.7L85.2,27.1 M84.2,25.3v10.9l4.6-2.5l4.6-2.6l-4.6-2.9L84.2,25.3L84.2,25.3z"/>
<polygon class="st4" points="95.3,19.3 103.6,23.2 96.4,28.4 "/>
<path d="M95.9,20.1l3.3,1.6l3.4,1.6l-2.9,2.1l-2.9,2.1l-0.4-3.7L95.9,20.1 M94.7,18.5l0.6,5.4l0.6,5.4l4.3-3.1l4.3-3.1l-4.9-2.3
	L94.7,18.5L94.7,18.5z"/>
<path class="st4" d="M39.3,30.7c5.1-1.3,10-3,14.9-4.9c0.9-0.4,1.9-0.7,2.8-1.1c3.9-1.3,7.6-3,11-5.1c0.4,0.9,0.9,1.7,1.3,2.5
	c0.5,0.8,0.9,1.7,1.3,2.6c-3.7,2.2-9.3,4.4-13.9,6.1c-5.4,2.1-10.6,4-15.3,5.4L39.3,30.7z"/>
<path d="M67.8,20.4c0.3,0.7,0.7,1.4,1.1,2s0.8,1.4,1.1,2.1c-4.3,2.3-8.8,4.2-13.5,5.9c-5.2,2-10.2,3.9-14.8,5.3L40,31
	c4.9-1.3,9.7-2.9,14.4-4.8l2.8-1.1C60.9,24,64.5,22.3,67.8,20.4 M68.2,18.8c-4.6,3.2-9.3,4.6-14.2,6.5c-5,2-10.2,3.6-15.4,5l2.5,6.5
	c4.8-1.4,10.3-3.4,15.8-5.5c5.1-2,10.8-4.2,14.4-6.4C70.5,22.7,69.1,21,68.2,18.8L68.2,18.8z"/>
<path class="st5" d="M42.7,72.9c0.4-1.4,1.1-2,2.2-2c0.6,0,1,0.5,1.4,1.4v1c-0.1,0.7-0.8,1.3-2,1.7C43.2,74.3,42.7,73.6,42.7,72.9z
	 M43.5,91.8c0-6.4,0.4-9.8,1.1-10.3h0.5l0.3,0.4v23.7l-2,1L43.5,91.8z"/>
<path class="st5" d="M61.9,66.3c0.7,0,1.9,0.7,3.5,2v1.2h-0.6v0.3c-1.1-0.8-2.4-1.3-3.8-1.5h-1.5c-4,2.2-2.6,11.9,4.2,29.1l0.3,1.4
	c0,3.9-2.2,7.1-6.7,9.7l-2.1,0.6c-2.9-0.8-4.4-2.3-4.4-4.4c0.2-1,0.5-1.4,0.9-1.4h0.6c0.6,2.5,1.3,3.8,2,3.8c4.5,0,7.1-2.7,7.7-8.2
	v-1.4c-8.4-19.4-9.2-29.7-2.2-30.9L61.9,66.3z"/>
<path class="st5" d="M75.6,80.6h0.9l0.9,0.6L77,85.6c0.6,10.4,1.4,15.6,2.6,15.6h0.6v0.3c0.1,0.9-0.4,1.7-1.2,2.1h-1.2
	c-0.8,0-1.4-2.2-2-6.5h-0.3c-1.1,6.7-2.9,10-5.3,10c-1.3,0-2-2.1-2-6.2v-3.2c0-9,1.6-14.1,4.9-15.2C73.8,82.4,74.6,81.8,75.6,80.6z
	 M70.3,96.7v4.1c0,2.2,0.3,3.2,0.9,3.2c1.3,0,2.6-5.1,3.8-15.2v-0.3c-0.1-2.7-0.4-4.1-0.9-4.1h-0.9C71.3,84.4,70.3,88.5,70.3,96.7
	L70.3,96.7z"/>
<path class="st5" d="M84.7,69.5l1-0.2l-0.2,5.3l-0.1,4.8l0.2,13.7l-0.3,5.9l0.6,3.5c0,0.4-0.5,1-1.5,1.8l-1.4-1.2
	c0.5-2,0.7-4.1,0.6-6.2v-0.5L84,70.5C84.4,69.8,84.6,69.5,84.7,69.5z"/>
<path class="st5" d="M98.7,82.1l0.6,0.6L98.7,85v0.9l0.2,2.4c-0.8,10.5-2.4,15.8-4.9,15.8c-2.5,0-4.4-5-5.6-15v-1.7
	c0-1.5,0.4-2.4,1.2-2.6h0.6l0.9,0.6l-0.3,2v2.9c0,4,0.9,7.9,2.6,11.5H94c1.3-0.6,2.2-4.3,2.6-11.1v-3c0.1-1.1-0.1-2.2-0.6-3.2
	C96,83.2,96.9,82.4,98.7,82.1z"/>
<path class="st5" d="M110.8,71.4c0.9-0.1,1.8,0.5,2,1.4l-0.6,2.1c0.5,19.8,0.9,29.5,1.3,29l-1,0.7c-0.4-0.2-0.9-0.4-1.3-0.5
	L111,91.8l-0.2-0.3h-0.3c-1.2,8.2-2.9,12.3-5.3,12.3h-0.6c-2.4,0-3.5-2.3-3.5-7c0-3.4,1.7-6.7,5-10c2.8-0.6,4.1-1.7,4.1-3.2v-4.1
	l-0.6-6.8C110,71.9,110.4,71.4,110.8,71.4z M103.5,95.7v2.9c0,1.5,0.5,2.5,1.5,3h0.2c1.2,0,2.5-4.3,4.1-12.9l-0.3-0.3h-1.2
	C105,90.1,103.5,92.6,103.5,95.7z"/>
<path class="st5" d="M118.6,99.1c1.2,0.5,1.9,1.2,2.1,2v1.1c-0.4,1-0.9,1.6-1.4,1.6c-1.2,0-2-0.8-2.3-2.3
	C116.9,100.6,117.5,99.9,118.6,99.1z M117.8,63.3l2.1,1.2v26.8l-0.3,0.4H119c-0.8-0.5-1.2-4.4-1.2-11.7L117.8,63.3z"/>
</svg>
